#!OML:ASF X:\für Bonn\!DataBase\2005_08_11_Bastian_Final\c3d\Bastian.ASF
:FULLY-SPECIFIED
:DEGREES
121
root 7.75116 10.2291 -4.37071 171.926 86.5304 -176.427
lowerback 70.0927 -6.35929 6.99458
upperback 18.1105 4.75826 6.46
thorax -0.76852 4.1393 2.64453
lowerneck -2.22134 -14.9385 -1.14689
upperneck -19.225 -18.1839 18.2913
head -3.49407 -10.0897 5.96689
rclavicle -6.99722e-014 -1.59028e-014
rhumerus 33.3887 2.92101 -44.7471
rradius 24.9024
rwrist -3.41727
rhand -36.0416 -1.44035
rfingers 7.12502
rthumb -9.14996 -31.2219
lclavicle -6.99722e-014 -1.59028e-014
lhumerus -2.41692 -24.2775 81.4406
lradius 40.9835
lwrist 21.7818
lhand -13.0409 -9.8479
lfingers 7.12502
lthumb 13.0538 19.7236
rfemur -71.4769 -8.54212 19.3852
rtibia 117.944
rfoot -27.5263 1.20927
rtoes -7.0622
lfemur -55.8675 16.617 -28.4696
ltibia 127.548
lfoot -44.9175 -7.10245
ltoes 5.00187
122
root 7.77292 10.1187 -4.37247 172.171 86.5294 -175.952
lowerback 70.1043 -6.37487 6.98778
upperback 18.2128 4.76946 6.47864
thorax -0.651708 4.15933 2.67238
lowerneck -2.33454 -14.9105 -1.04755
upperneck -19.3725 -18.1339 18.2175
head -3.54386 -10.066 5.93639
rclavicle 2.8625e-014 -3.65764e-014
rhumerus 33.2556 2.78971 -44.9338
rradius 25.0005
rwrist -3.08399
rhand -36.478 -1.29842
rfingers 7.12502
rthumb -9.57099 -31.061
lclavicle 2.8625e-014 -3.65764e-014
lhumerus -2.17684 -24.2836 81.3943
lradius 41.0547
lwrist 21.8685
lhand -13.0921 -9.79491
lfingers 7.12502
lthumb 13.0044 19.7798
rfemur -71.8884 -8.71583 19.4344
rtibia 118.915
rfoot -27.8523 1.14766
rtoes -7.15538
lfemur -56.1227 17.079 -28.4648
ltibia 128.64
lfoot -45.212 -7.20354
ltoes 4.81943
123
root 7.7936 10.0102 -4.37522 172.035 86.5284 -175.91
lowerback 70.0958 -6.39501 6.97588
upperback 18.2851 4.75614 6.4672
thorax -0.567217 4.16674 2.67479
lowerneck -2.4653 -14.8758 -0.938834
upperneck -19.4694 -18.0814 18.1278
head -3.57831 -10.0378 5.89515
rclavicle -8.5875e-014 6.67916e-014
rhumerus 33.1099 2.62131 -45.2216
rradius 25.0937
rwrist -2.65588
rhand -36.9207 -1.1644
rfingers 7.12502
rthumb -9.99809 -30.9069
lclavicle -8.5875e-014 6.67916e-014
lhumerus -2.02697 -24.3146 81.3294
lradius 41.1678
lwrist 21.9246
lhand -13.1938 -9.80117
lfingers 7.12502
lthumb 12.9063 19.7797
rfemur -72.3532 -8.87364 19.4406
rtibia 119.849
rfoot -28.1222 1.13311
rtoes -7.17507
lfemur -56.4456 17.5087 -28.5255
ltibia 129.707
lfoot -45.4933 -7.27141
ltoes 4.73956
124
root 7.81414 9.90552 -4.37729 170.782 86.5031 -176.985
lowerback 70.0584 -6.37842 6.89927
upperback 18.3864 4.7448 6.49277
thorax -0.462712 4.16915 2.74287
lowerneck -2.57934 -14.8269 -0.868942
upperneck -19.6154 -18.004 18.0453
head -3.62768 -9.9974 5.86639
rclavicle 2.8625e-014 1.35174e-014
rhumerus 32.9764 2.49414 -45.4119
rradius 25.2013
rwrist -2.26246
rhand -37.3742 -1.01124
rfingers 7.12502
rthumb -10.4356 -30.7322
lclavicle 2.8625e-014 1.35174e-014
lhumerus -1.83097 -24.3016 81.3145
lradius 41.2768
lwrist 21.9726
lhand -13.2596 -9.77698
lfingers 7.12502
lthumb 12.8429 19.8079
rfemur -72.8074 -9.08091 19.3682
rtibia 120.773
rfoot -28.4125 1.15549
rtoes -7.00124
lfemur -56.736 17.8995 -28.6558
ltibia 130.721
lfoot -45.7292 -7.31679
ltoes 4.72926
125
root 7.83467 9.80391 -4.37906 169.778 86.5087 -177.871
lowerback 69.965 -6.33289 6.8124
upperback 18.4964 4.74067 6.51569
thorax -0.353653 4.17198 2.80676
lowerneck -2.76882 -14.7822 -0.785679
upperneck -19.6879 -17.9446 17.9387
head -3.64483 -9.95977 5.81669
rclavicle -3.81667e-014 -4.77083e-015
rhumerus 32.8686 2.33176 -45.6458
rradius 25.2984
rwrist -1.8431
rhand -37.7196 -0.815454
rfingers 7.12502
rthumb -10.7688 -30.5194
lclavicle -3.81667e-014 -4.77083e-015
lhumerus -1.59869 -24.2941 81.2787
lradius 41.3355
lwrist 22.0181
lhand -13.3118 -9.78117
lfingers 7.12502
lthumb 12.7926 19.8069
rfemur -73.3214 -9.23337 19.3412
rtibia 121.65
rfoot -28.6587 1.097
rtoes -7.25554
lfemur -57.0743 18.3205 -28.7898
ltibia 131.702
lfoot -45.9724 -7.37849
ltoes 4.70451
126
root 7.85486 9.7071 -4.38159 169.181 86.5109 -178.318
lowerback 69.9006 -6.33277 6.78273
upperback 18.6156 4.73366 6.50853
thorax -0.221427 4.18471 2.81926
lowerneck -3.02642 -14.7409 -0.673452
upperneck -19.7628 -17.8867 17.8556
head -3.65188 -9.92352 5.76414
rclavicle 3.18055e-014 5.96354e-014
rhumerus 32.7312 2.03987 -45.956
rradius 25.4047
rwrist -1.29481
rhand -38.0007 -0.602115
rfingers 7.12502
rthumb -11.0399 -30.2918
lclavicle 3.18055e-014 5.96354e-014
lhumerus -1.30476 -24.3283 81.2007
lradius 41.3895
lwrist 22.0695
lhand -13.375 -9.80134
lfingers 7.12502
lthumb 12.7317 19.7905
rfemur -73.7625 -9.38964 19.3172
rtibia 122.489
rfoot -28.905 1.10537
rtoes -7.0877
lfemur -57.3414 18.7819 -28.8776
ltibia 132.643
lfoot -46.1797 -7.45693
ltoes 4.75368
127
root 7.87432 9.6125 -4.38304 169.628 86.5251 -177.744
lowerback 69.8261 -6.31091 6.74569
upperback 18.7371 4.74655 6.54917
thorax -0.0948226 4.19755 2.87989
lowerneck -3.32888 -14.6966 -0.586343
upperneck -19.7778 -17.8437 17.698
head -3.63766 -9.88455 5.68531
rclavicle -4.45278e-014 -5.00937e-014
rhumerus 32.6162 1.85712 -46.1524
rradius 25.5721
rwrist -0.859419
rhand -38.1919 -0.35779
rfingers 7.12502
rthumb -11.2244 -30.0375
lclavicle -4.45278e-014 -5.00937e-014
lhumerus -1.01117 -24.274 81.1905
lradius 41.4052
lwrist 22.0943
lhand -13.4372 -9.77736
lfingers 7.12502
lthumb 12.6717 19.8182
rfemur -74.2 -9.49811 19.3877
rtibia 123.288
rfoot -29.1337 1.00878
rtoes -7.20942
lfemur -57.6409 19.2863 -28.8784
ltibia 133.564
lfoot -46.401 -7.55942
ltoes 4.74344
